<mxfile host="65bd71144e">
    <diagram id="7NWFvEN3689vheLtb6te" name="Page-1">
        <mxGraphModel dx="660" dy="359" grid="1" gridSize="10" guides="1" tooltips="1" connect="1" arrows="1" fold="1" page="1" pageScale="1" pageWidth="1500" pageHeight="800" background="#060505" math="0" shadow="0">
            <root>
                <mxCell id="0"/>
                <mxCell id="1" parent="0"/>
                <mxCell id="58" value="" style="endArrow=none;dashed=1;html=1;dashPattern=1 3;strokeWidth=2;fontSize=7;fillColor=#f5f5f5;strokeColor=#FF9933;" parent="1" edge="1">
                    <mxGeometry width="50" height="50" relative="1" as="geometry">
                        <mxPoint x="39" y="600" as="sourcePoint"/>
                        <mxPoint x="38.76" y="80" as="targetPoint"/>
                    </mxGeometry>
                </mxCell>
                <mxCell id="101" value="" style="shape=umlActor;verticalLabelPosition=bottom;verticalAlign=top;html=1;outlineConnect=0;fontSize=7;strokeColor=#FF9933;fillColor=#000000;" parent="1" vertex="1">
                    <mxGeometry x="29" y="20" width="20" height="40" as="geometry"/>
                </mxCell>
                <mxCell id="109" value="" style="rounded=0;whiteSpace=wrap;html=1;fontSize=7;strokeColor=#FF9933;fillColor=#000000;" parent="1" vertex="1">
                    <mxGeometry x="420" y="30" width="60" height="20" as="geometry"/>
                </mxCell>
                <mxCell id="110" value="" style="rounded=0;whiteSpace=wrap;html=1;fontSize=7;strokeColor=#FF9933;fillColor=#000000;" parent="1" vertex="1">
                    <mxGeometry x="310" y="30" width="60" height="20" as="geometry"/>
                </mxCell>
                <mxCell id="111" value="" style="rounded=0;whiteSpace=wrap;html=1;fontSize=7;strokeColor=#FF9933;fillColor=#000000;" parent="1" vertex="1">
                    <mxGeometry x="740" y="30" width="60" height="20" as="geometry"/>
                </mxCell>
                <mxCell id="112" value="" style="rounded=0;whiteSpace=wrap;html=1;fontSize=7;strokeColor=#FF9933;fillColor=#000000;" parent="1" vertex="1">
                    <mxGeometry x="630" y="30" width="60" height="20" as="geometry"/>
                </mxCell>
                <mxCell id="113" value="" style="rounded=0;whiteSpace=wrap;html=1;fontSize=7;strokeColor=#FF9933;fillColor=#000000;" parent="1" vertex="1">
                    <mxGeometry x="530" y="30" width="60" height="20" as="geometry"/>
                </mxCell>
                <mxCell id="114" value="" style="rounded=0;whiteSpace=wrap;html=1;fontSize=7;strokeColor=#FF9933;fillColor=#000000;" parent="1" vertex="1">
                    <mxGeometry x="960" y="30" width="60" height="20" as="geometry"/>
                </mxCell>
                <mxCell id="115" value="" style="rounded=0;whiteSpace=wrap;html=1;fontSize=7;strokeColor=#FF9933;fillColor=#000000;" parent="1" vertex="1">
                    <mxGeometry x="850" y="30" width="60" height="20" as="geometry"/>
                </mxCell>
                <mxCell id="116" value="" style="rounded=0;whiteSpace=wrap;html=1;fontSize=7;strokeColor=#FF9933;fillColor=#000000;" parent="1" vertex="1">
                    <mxGeometry x="160" y="30" width="60" height="20" as="geometry"/>
                </mxCell>
                <mxCell id="117" value="" style="rounded=0;whiteSpace=wrap;html=1;fontSize=7;strokeColor=#FF9933;fillColor=#000000;" parent="1" vertex="1">
                    <mxGeometry x="1180" y="30" width="60" height="20" as="geometry"/>
                </mxCell>
                <mxCell id="118" value="" style="rounded=0;whiteSpace=wrap;html=1;fontSize=7;strokeColor=#FF9933;fillColor=#000000;" parent="1" vertex="1">
                    <mxGeometry x="1070" y="30" width="60" height="20" as="geometry"/>
                </mxCell>
                <mxCell id="120" value="" style="rounded=0;whiteSpace=wrap;html=1;fontSize=7;strokeColor=#FF9933;fillColor=#000000;" parent="1" vertex="1">
                    <mxGeometry x="1290" y="30" width="60" height="20" as="geometry"/>
                </mxCell>
                <mxCell id="121" value="" style="endArrow=none;dashed=1;html=1;dashPattern=1 3;strokeWidth=2;fontSize=7;fillColor=#f5f5f5;strokeColor=#FF9933;startArrow=none;" parent="1" edge="1" source="145">
                    <mxGeometry width="50" height="50" relative="1" as="geometry">
                        <mxPoint x="190.1" y="520" as="sourcePoint"/>
                        <mxPoint x="189.7600000000001" y="50" as="targetPoint"/>
                    </mxGeometry>
                </mxCell>
                <mxCell id="122" value="" style="endArrow=none;dashed=1;html=1;dashPattern=1 3;strokeWidth=2;fontSize=7;fillColor=#f5f5f5;strokeColor=#FF9933;startArrow=none;" parent="1" edge="1" source="164">
                    <mxGeometry width="50" height="50" relative="1" as="geometry">
                        <mxPoint x="560" y="520" as="sourcePoint"/>
                        <mxPoint x="559.6600000000001" y="50" as="targetPoint"/>
                    </mxGeometry>
                </mxCell>
                <mxCell id="123" value="" style="endArrow=none;dashed=1;html=1;dashPattern=1 3;strokeWidth=2;fontSize=7;fillColor=#f5f5f5;strokeColor=#FF9933;startArrow=none;" parent="1" edge="1" source="151">
                    <mxGeometry width="50" height="50" relative="1" as="geometry">
                        <mxPoint x="450" y="520" as="sourcePoint"/>
                        <mxPoint x="449.6600000000001" y="50" as="targetPoint"/>
                    </mxGeometry>
                </mxCell>
                <mxCell id="124" value="" style="endArrow=none;dashed=1;html=1;dashPattern=1 3;strokeWidth=2;fontSize=7;fillColor=#f5f5f5;strokeColor=#FF9933;startArrow=none;" parent="1" edge="1" source="147">
                    <mxGeometry width="50" height="50" relative="1" as="geometry">
                        <mxPoint x="340" y="520" as="sourcePoint"/>
                        <mxPoint x="339.6600000000001" y="50" as="targetPoint"/>
                    </mxGeometry>
                </mxCell>
                <mxCell id="127" value="" style="endArrow=none;dashed=1;html=1;dashPattern=1 3;strokeWidth=2;fontSize=7;fillColor=#f5f5f5;strokeColor=#FF9933;startArrow=none;" parent="1" edge="1" source="157">
                    <mxGeometry width="50" height="50" relative="1" as="geometry">
                        <mxPoint x="1210" y="520" as="sourcePoint"/>
                        <mxPoint x="1209.6599999999999" y="50" as="targetPoint"/>
                    </mxGeometry>
                </mxCell>
                <mxCell id="128" value="" style="endArrow=none;dashed=1;html=1;dashPattern=1 3;strokeWidth=2;fontSize=7;fillColor=#f5f5f5;strokeColor=#FF9933;startArrow=none;" parent="1" edge="1" source="153">
                    <mxGeometry width="50" height="50" relative="1" as="geometry">
                        <mxPoint x="1100" y="520" as="sourcePoint"/>
                        <mxPoint x="1099.6599999999999" y="50" as="targetPoint"/>
                    </mxGeometry>
                </mxCell>
                <mxCell id="129" value="" style="endArrow=none;dashed=1;html=1;dashPattern=1 3;strokeWidth=2;fontSize=7;fillColor=#f5f5f5;strokeColor=#FF9933;startArrow=none;" parent="1" edge="1" source="178">
                    <mxGeometry width="50" height="50" relative="1" as="geometry">
                        <mxPoint x="990" y="520" as="sourcePoint"/>
                        <mxPoint x="989.6599999999999" y="50" as="targetPoint"/>
                    </mxGeometry>
                </mxCell>
                <mxCell id="130" value="" style="endArrow=none;dashed=1;html=1;dashPattern=1 3;strokeWidth=2;fontSize=7;fillColor=#f5f5f5;strokeColor=#FF9933;startArrow=none;" parent="1" edge="1" source="177">
                    <mxGeometry width="50" height="50" relative="1" as="geometry">
                        <mxPoint x="880" y="520" as="sourcePoint"/>
                        <mxPoint x="879.6599999999999" y="50" as="targetPoint"/>
                    </mxGeometry>
                </mxCell>
                <mxCell id="131" value="" style="endArrow=none;dashed=1;html=1;dashPattern=1 3;strokeWidth=2;fontSize=7;fillColor=#f5f5f5;strokeColor=#FF9933;startArrow=none;" parent="1" edge="1" source="170">
                    <mxGeometry width="50" height="50" relative="1" as="geometry">
                        <mxPoint x="770" y="520" as="sourcePoint"/>
                        <mxPoint x="769.6599999999999" y="50" as="targetPoint"/>
                    </mxGeometry>
                </mxCell>
                <mxCell id="132" value="" style="endArrow=none;dashed=1;html=1;dashPattern=1 3;strokeWidth=2;fontSize=7;fillColor=#f5f5f5;strokeColor=#FF9933;startArrow=none;" parent="1" edge="1" source="166">
                    <mxGeometry width="50" height="50" relative="1" as="geometry">
                        <mxPoint x="660" y="520" as="sourcePoint"/>
                        <mxPoint x="659.6599999999999" y="50" as="targetPoint"/>
                    </mxGeometry>
                </mxCell>
                <mxCell id="133" value="" style="endArrow=none;dashed=1;html=1;dashPattern=1 3;strokeWidth=2;fontSize=7;fillColor=#f5f5f5;strokeColor=#FF9933;startArrow=none;" parent="1" edge="1" source="159">
                    <mxGeometry width="50" height="50" relative="1" as="geometry">
                        <mxPoint x="1320" y="520" as="sourcePoint"/>
                        <mxPoint x="1319.6599999999999" y="50" as="targetPoint"/>
                    </mxGeometry>
                </mxCell>
                <mxCell id="135" value="" style="rounded=0;whiteSpace=wrap;html=1;fillColor=#000000;strokeColor=#FF9933;" parent="1" vertex="1">
                    <mxGeometry x="34" y="100" width="10" height="480" as="geometry"/>
                </mxCell>
                <mxCell id="146" value="" style="endArrow=classic;html=1;strokeColor=#FF9933;endFill=1;entryX=0;entryY=0;entryDx=0;entryDy=0;" edge="1" parent="1" target="145">
                    <mxGeometry width="50" height="50" relative="1" as="geometry">
                        <mxPoint x="44" y="110" as="sourcePoint"/>
                        <mxPoint x="110" y="110" as="targetPoint"/>
                    </mxGeometry>
                </mxCell>
                <mxCell id="148" value="" style="endArrow=none;dashed=1;html=1;dashPattern=1 3;strokeWidth=2;fontSize=7;fillColor=#f5f5f5;strokeColor=#FF9933;" edge="1" parent="1" target="147">
                    <mxGeometry width="50" height="50" relative="1" as="geometry">
                        <mxPoint x="340" y="600" as="sourcePoint"/>
                        <mxPoint x="339.6600000000001" y="50" as="targetPoint"/>
                    </mxGeometry>
                </mxCell>
                <mxCell id="147" value="" style="rounded=0;whiteSpace=wrap;html=1;fillColor=#000000;strokeColor=#FF9933;" vertex="1" parent="1">
                    <mxGeometry x="335" y="160" width="10" height="140" as="geometry"/>
                </mxCell>
                <mxCell id="149" value="" style="endArrow=classic;html=1;strokeColor=#FF9933;endFill=1;entryX=0;entryY=0;entryDx=0;entryDy=0;" edge="1" parent="1" target="153">
                    <mxGeometry width="50" height="50" relative="1" as="geometry">
                        <mxPoint x="195" y="120" as="sourcePoint"/>
                        <mxPoint x="1090" y="120" as="targetPoint"/>
                    </mxGeometry>
                </mxCell>
                <mxCell id="150" value="" style="endArrow=classic;html=1;strokeColor=#FF9933;endFill=1;entryX=0;entryY=0;entryDx=0;entryDy=0;" edge="1" parent="1" target="147">
                    <mxGeometry width="50" height="50" relative="1" as="geometry">
                        <mxPoint x="195" y="160.97000000000003" as="sourcePoint"/>
                        <mxPoint x="330" y="160" as="targetPoint"/>
                    </mxGeometry>
                </mxCell>
                <mxCell id="152" value="" style="endArrow=none;dashed=1;html=1;dashPattern=1 3;strokeWidth=2;fontSize=7;fillColor=#f5f5f5;strokeColor=#FF9933;startArrow=none;" edge="1" parent="1" source="189" target="151">
                    <mxGeometry width="50" height="50" relative="1" as="geometry">
                        <mxPoint x="450" y="600" as="sourcePoint"/>
                        <mxPoint x="449.6600000000001" y="50" as="targetPoint"/>
                    </mxGeometry>
                </mxCell>
                <mxCell id="151" value="" style="rounded=0;whiteSpace=wrap;html=1;fillColor=#000000;strokeColor=#FF9933;" vertex="1" parent="1">
                    <mxGeometry x="445" y="190" width="10" height="110" as="geometry"/>
                </mxCell>
                <mxCell id="154" value="" style="endArrow=none;dashed=1;html=1;dashPattern=1 3;strokeWidth=2;fontSize=7;fillColor=#f5f5f5;strokeColor=#FF9933;" edge="1" parent="1" target="145">
                    <mxGeometry width="50" height="50" relative="1" as="geometry">
                        <mxPoint x="190" y="600" as="sourcePoint"/>
                        <mxPoint x="189.7600000000001" y="50" as="targetPoint"/>
                    </mxGeometry>
                </mxCell>
                <mxCell id="145" value="" style="rounded=0;whiteSpace=wrap;html=1;fillColor=#000000;strokeColor=#FF9933;" vertex="1" parent="1">
                    <mxGeometry x="185" y="110" width="10" height="190" as="geometry"/>
                </mxCell>
                <mxCell id="155" value="" style="endArrow=none;dashed=1;html=1;dashPattern=1 3;strokeWidth=2;fontSize=7;fillColor=#f5f5f5;strokeColor=#FF9933;" edge="1" parent="1" target="153">
                    <mxGeometry width="50" height="50" relative="1" as="geometry">
                        <mxPoint x="1100" y="600" as="sourcePoint"/>
                        <mxPoint x="1099.6599999999999" y="50" as="targetPoint"/>
                    </mxGeometry>
                </mxCell>
                <mxCell id="153" value="" style="rounded=0;whiteSpace=wrap;html=1;fillColor=#000000;strokeColor=#FF9933;" vertex="1" parent="1">
                    <mxGeometry x="1095" y="120" width="10" height="470" as="geometry"/>
                </mxCell>
                <mxCell id="156" value="" style="endArrow=classic;html=1;strokeColor=#FF9933;endFill=1;" edge="1" parent="1">
                    <mxGeometry width="50" height="50" relative="1" as="geometry">
                        <mxPoint x="1105" y="135.97000000000003" as="sourcePoint"/>
                        <mxPoint x="1320" y="135" as="targetPoint"/>
                    </mxGeometry>
                </mxCell>
                <mxCell id="158" value="" style="endArrow=none;dashed=1;html=1;dashPattern=1 3;strokeWidth=2;fontSize=7;fillColor=#f5f5f5;strokeColor=#FF9933;" edge="1" parent="1" target="157">
                    <mxGeometry width="50" height="50" relative="1" as="geometry">
                        <mxPoint x="1210" y="600" as="sourcePoint"/>
                        <mxPoint x="1209.6599999999999" y="50" as="targetPoint"/>
                    </mxGeometry>
                </mxCell>
                <mxCell id="157" value="" style="rounded=0;whiteSpace=wrap;html=1;fillColor=#000000;strokeColor=#FF9933;" vertex="1" parent="1">
                    <mxGeometry x="1205" y="180" width="10" height="410" as="geometry"/>
                </mxCell>
                <mxCell id="160" value="" style="endArrow=none;dashed=1;html=1;dashPattern=1 3;strokeWidth=2;fontSize=7;fillColor=#f5f5f5;strokeColor=#FF9933;" edge="1" parent="1" target="159">
                    <mxGeometry width="50" height="50" relative="1" as="geometry">
                        <mxPoint x="1320" y="600" as="sourcePoint"/>
                        <mxPoint x="1319.6599999999999" y="50" as="targetPoint"/>
                    </mxGeometry>
                </mxCell>
                <mxCell id="159" value="" style="rounded=0;whiteSpace=wrap;html=1;fillColor=#000000;strokeColor=#FF9933;" vertex="1" parent="1">
                    <mxGeometry x="1315" y="135" width="10" height="455" as="geometry"/>
                </mxCell>
                <mxCell id="162" value="" style="endArrow=classic;html=1;strokeColor=#FF9933;endFill=1;" edge="1" parent="1">
                    <mxGeometry width="50" height="50" relative="1" as="geometry">
                        <mxPoint x="1105" y="180.97000000000008" as="sourcePoint"/>
                        <mxPoint x="1210" y="180" as="targetPoint"/>
                    </mxGeometry>
                </mxCell>
                <mxCell id="163" value="" style="endArrow=classic;html=1;strokeColor=#FF9933;endFill=1;entryX=0;entryY=0;entryDx=0;entryDy=0;" edge="1" parent="1">
                    <mxGeometry width="50" height="50" relative="1" as="geometry">
                        <mxPoint x="345" y="190" as="sourcePoint"/>
                        <mxPoint x="450" y="190.00000000000023" as="targetPoint"/>
                    </mxGeometry>
                </mxCell>
                <mxCell id="165" value="" style="endArrow=none;dashed=1;html=1;dashPattern=1 3;strokeWidth=2;fontSize=7;fillColor=#f5f5f5;strokeColor=#FF9933;" edge="1" parent="1" target="164">
                    <mxGeometry width="50" height="50" relative="1" as="geometry">
                        <mxPoint x="560" y="600" as="sourcePoint"/>
                        <mxPoint x="559.6600000000001" y="50" as="targetPoint"/>
                    </mxGeometry>
                </mxCell>
                <mxCell id="164" value="" style="rounded=0;whiteSpace=wrap;html=1;fillColor=#000000;strokeColor=#FF9933;" vertex="1" parent="1">
                    <mxGeometry x="555" y="220" width="10" height="45" as="geometry"/>
                </mxCell>
                <mxCell id="167" value="" style="endArrow=none;dashed=1;html=1;dashPattern=1 3;strokeWidth=2;fontSize=7;fillColor=#f5f5f5;strokeColor=#FF9933;" edge="1" parent="1" target="166">
                    <mxGeometry width="50" height="50" relative="1" as="geometry">
                        <mxPoint x="660" y="600" as="sourcePoint"/>
                        <mxPoint x="659.6599999999999" y="50" as="targetPoint"/>
                    </mxGeometry>
                </mxCell>
                <mxCell id="166" value="" style="rounded=0;whiteSpace=wrap;html=1;fillColor=#000000;strokeColor=#FF9933;" vertex="1" parent="1">
                    <mxGeometry x="655" y="200" width="10" height="80" as="geometry"/>
                </mxCell>
                <mxCell id="168" value="" style="endArrow=classic;html=1;strokeColor=#FF9933;endFill=1;entryX=0;entryY=0;entryDx=0;entryDy=0;" edge="1" parent="1" target="164">
                    <mxGeometry width="50" height="50" relative="1" as="geometry">
                        <mxPoint x="455" y="220" as="sourcePoint"/>
                        <mxPoint x="540" y="220" as="targetPoint"/>
                    </mxGeometry>
                </mxCell>
                <mxCell id="169" value="" style="endArrow=classic;html=1;strokeColor=#FF9933;endFill=1;entryX=0;entryY=0;entryDx=0;entryDy=0;" edge="1" parent="1" target="166">
                    <mxGeometry width="50" height="50" relative="1" as="geometry">
                        <mxPoint x="455" y="200" as="sourcePoint"/>
                        <mxPoint x="650" y="200" as="targetPoint"/>
                        <Array as="points">
                            <mxPoint x="540" y="200"/>
                            <mxPoint x="585" y="200"/>
                        </Array>
                    </mxGeometry>
                </mxCell>
                <mxCell id="171" value="" style="endArrow=none;dashed=1;html=1;dashPattern=1 3;strokeWidth=2;fontSize=7;fillColor=#f5f5f5;strokeColor=#FF9933;" edge="1" parent="1" target="170">
                    <mxGeometry width="50" height="50" relative="1" as="geometry">
                        <mxPoint x="770" y="600" as="sourcePoint"/>
                        <mxPoint x="769.6599999999999" y="50" as="targetPoint"/>
                    </mxGeometry>
                </mxCell>
                <mxCell id="170" value="" style="rounded=0;whiteSpace=wrap;html=1;fillColor=#000000;strokeColor=#FF9933;" vertex="1" parent="1">
                    <mxGeometry x="765" y="400" width="10" height="100" as="geometry"/>
                </mxCell>
                <mxCell id="172" value="" style="endArrow=classic;html=1;strokeColor=#FF9933;endFill=1;entryX=0.118;entryY=0.363;entryDx=0;entryDy=0;entryPerimeter=0;" edge="1" parent="1" target="153">
                    <mxGeometry width="50" height="50" relative="1" as="geometry">
                        <mxPoint x="455" y="290" as="sourcePoint"/>
                        <mxPoint x="1090" y="290" as="targetPoint"/>
                        <Array as="points">
                            <mxPoint x="730" y="290"/>
                        </Array>
                    </mxGeometry>
                </mxCell>
                <mxCell id="175" value="" style="endArrow=classic;html=1;strokeColor=#FF9933;endFill=1;entryX=0;entryY=0;entryDx=0;entryDy=0;" edge="1" parent="1" target="170">
                    <mxGeometry width="50" height="50" relative="1" as="geometry">
                        <mxPoint x="460" y="400" as="sourcePoint"/>
                        <mxPoint x="760" y="370" as="targetPoint"/>
                    </mxGeometry>
                </mxCell>
                <mxCell id="179" value="" style="endArrow=none;dashed=1;html=1;dashPattern=1 3;strokeWidth=2;fontSize=7;fillColor=#f5f5f5;strokeColor=#FF9933;" edge="1" parent="1" target="178">
                    <mxGeometry width="50" height="50" relative="1" as="geometry">
                        <mxPoint x="990" y="600" as="sourcePoint"/>
                        <mxPoint x="989.6599999999999" y="50" as="targetPoint"/>
                    </mxGeometry>
                </mxCell>
                <mxCell id="178" value="" style="rounded=0;whiteSpace=wrap;html=1;fillColor=#000000;strokeColor=#FF9933;" vertex="1" parent="1">
                    <mxGeometry x="985" y="425" width="10" height="60" as="geometry"/>
                </mxCell>
                <mxCell id="180" value="" style="endArrow=none;dashed=1;html=1;dashPattern=1 3;strokeWidth=2;fontSize=7;fillColor=#f5f5f5;strokeColor=#FF9933;" edge="1" parent="1" target="177">
                    <mxGeometry width="50" height="50" relative="1" as="geometry">
                        <mxPoint x="880" y="600" as="sourcePoint"/>
                        <mxPoint x="879.6599999999999" y="50" as="targetPoint"/>
                    </mxGeometry>
                </mxCell>
                <mxCell id="177" value="" style="rounded=0;whiteSpace=wrap;html=1;fillColor=#000000;strokeColor=#FF9933;" vertex="1" parent="1">
                    <mxGeometry x="875" y="440" width="10" height="30" as="geometry"/>
                </mxCell>
                <mxCell id="182" value="" style="endArrow=classic;html=1;strokeColor=#FF9933;endFill=1;exitX=1.022;exitY=0.145;exitDx=0;exitDy=0;exitPerimeter=0;" edge="1" parent="1">
                    <mxGeometry width="50" height="50" relative="1" as="geometry">
                        <mxPoint x="775.2200000000001" y="440.00000000000006" as="sourcePoint"/>
                        <mxPoint x="875" y="440.05" as="targetPoint"/>
                    </mxGeometry>
                </mxCell>
                <mxCell id="183" value="" style="endArrow=classic;html=1;strokeColor=#FF9933;endFill=1;exitX=0.046;exitY=0.896;exitDx=0;exitDy=0;exitPerimeter=0;" edge="1" parent="1" source="170">
                    <mxGeometry width="50" height="50" relative="1" as="geometry">
                        <mxPoint x="750" y="490" as="sourcePoint"/>
                        <mxPoint x="455" y="490" as="targetPoint"/>
                        <Array as="points">
                            <mxPoint x="685" y="490"/>
                        </Array>
                    </mxGeometry>
                </mxCell>
                <mxCell id="184" value="" style="endArrow=classic;html=1;strokeColor=#FF9933;endFill=1;exitX=0.022;exitY=0.514;exitDx=0;exitDy=0;exitPerimeter=0;" edge="1" parent="1" source="153">
                    <mxGeometry width="50" height="50" relative="1" as="geometry">
                        <mxPoint x="1087.5" y="362.26" as="sourcePoint"/>
                        <mxPoint x="455" y="362.26" as="targetPoint"/>
                    </mxGeometry>
                </mxCell>
                <mxCell id="185" value="" style="endArrow=classic;html=1;strokeColor=#FF9933;endFill=1;entryX=0;entryY=0;entryDx=0;entryDy=0;" edge="1" parent="1" target="178">
                    <mxGeometry width="50" height="50" relative="1" as="geometry">
                        <mxPoint x="775" y="425" as="sourcePoint"/>
                        <mxPoint x="955" y="425" as="targetPoint"/>
                    </mxGeometry>
                </mxCell>
                <mxCell id="186" value="" style="endArrow=classic;html=1;strokeColor=#FF9933;endFill=1;entryX=-0.049;entryY=0.832;entryDx=0;entryDy=0;entryPerimeter=0;" edge="1" parent="1" target="153">
                    <mxGeometry width="50" height="50" relative="1" as="geometry">
                        <mxPoint x="445" y="510" as="sourcePoint"/>
                        <mxPoint x="1090" y="511" as="targetPoint"/>
                        <Array as="points">
                            <mxPoint x="719.85" y="510"/>
                            <mxPoint x="830" y="511"/>
                        </Array>
                    </mxGeometry>
                </mxCell>
                <mxCell id="187" value="" style="endArrow=classic;html=1;strokeColor=#FF9933;endFill=1;entryX=1.041;entryY=0.458;entryDx=0;entryDy=0;entryPerimeter=0;exitX=-0.059;exitY=0.425;exitDx=0;exitDy=0;exitPerimeter=0;" edge="1" parent="1" source="153" target="135">
                    <mxGeometry width="50" height="50" relative="1" as="geometry">
                        <mxPoint x="1080" y="320" as="sourcePoint"/>
                        <mxPoint x="326.47058823529414" y="320" as="targetPoint"/>
                    </mxGeometry>
                </mxCell>
                <mxCell id="188" value="" style="endArrow=classic;html=1;strokeColor=#FF9933;endFill=1;entryX=0.006;entryY=0.467;entryDx=0;entryDy=0;entryPerimeter=0;" edge="1" parent="1" target="153">
                    <mxGeometry width="50" height="50" relative="1" as="geometry">
                        <mxPoint x="44" y="339.84999999999997" as="sourcePoint"/>
                        <mxPoint x="1090" y="340" as="targetPoint"/>
                        <Array as="points">
                            <mxPoint x="319" y="339.84999999999997"/>
                        </Array>
                    </mxGeometry>
                </mxCell>
                <mxCell id="190" value="" style="endArrow=none;dashed=1;html=1;dashPattern=1 3;strokeWidth=2;fontSize=7;fillColor=#f5f5f5;strokeColor=#FF9933;" edge="1" parent="1" target="189">
                    <mxGeometry width="50" height="50" relative="1" as="geometry">
                        <mxPoint x="450" y="600" as="sourcePoint"/>
                        <mxPoint x="450" y="300" as="targetPoint"/>
                    </mxGeometry>
                </mxCell>
                <mxCell id="189" value="" style="rounded=0;whiteSpace=wrap;html=1;fillColor=#000000;strokeColor=#FF9933;" vertex="1" parent="1">
                    <mxGeometry x="445" y="350" width="10" height="190" as="geometry"/>
                </mxCell>
                <mxCell id="191" value="" style="endArrow=classic;html=1;strokeColor=#FF9933;endFill=1;entryX=1.041;entryY=0.458;entryDx=0;entryDy=0;entryPerimeter=0;exitX=-0.059;exitY=0.425;exitDx=0;exitDy=0;exitPerimeter=0;" edge="1" parent="1">
                    <mxGeometry width="50" height="50" relative="1" as="geometry">
                        <mxPoint x="1094" y="550" as="sourcePoint"/>
                        <mxPoint x="43.99999999999997" y="550.09" as="targetPoint"/>
                    </mxGeometry>
                </mxCell>
                <mxCell id="212" value="&lt;font style=&quot;font-size: 10px;&quot; color=&quot;#ffffff&quot;&gt;Create Controller&lt;/font&gt;" style="text;html=1;strokeColor=none;fillColor=none;align=center;verticalAlign=middle;whiteSpace=wrap;rounded=0;" vertex="1" parent="1">
                    <mxGeometry x="57.5" y="100" width="115" height="10" as="geometry"/>
                </mxCell>
                <mxCell id="213" value="&lt;font style=&quot;font-size: 10px;&quot; color=&quot;#ffffff&quot;&gt;Create View&lt;/font&gt;" style="text;html=1;strokeColor=none;fillColor=none;align=center;verticalAlign=middle;whiteSpace=wrap;rounded=0;" vertex="1" parent="1">
                    <mxGeometry x="202.5" y="110" width="115" height="10" as="geometry"/>
                </mxCell>
                <mxCell id="214" value="&lt;font style=&quot;font-size: 10px;&quot; color=&quot;#ffffff&quot;&gt;Create Network with reading .csv&lt;/font&gt;" style="text;html=1;strokeColor=none;fillColor=none;align=center;verticalAlign=middle;whiteSpace=wrap;rounded=0;" vertex="1" parent="1">
                    <mxGeometry x="345" y="180" width="95" height="10" as="geometry"/>
                </mxCell>
                <mxCell id="215" value="&lt;font style=&quot;font-size: 10px;&quot; color=&quot;#ffffff&quot;&gt;Create Parser&lt;/font&gt;" style="text;html=1;strokeColor=none;fillColor=none;align=center;verticalAlign=middle;whiteSpace=wrap;rounded=0;" vertex="1" parent="1">
                    <mxGeometry x="202.5" y="150" width="115" height="10" as="geometry"/>
                </mxCell>
                <mxCell id="216" value="&lt;font style=&quot;font-size: 10px;&quot; color=&quot;#ffffff&quot;&gt;Create station(s)&lt;/font&gt;" style="text;html=1;strokeColor=none;fillColor=none;align=center;verticalAlign=middle;whiteSpace=wrap;rounded=0;" vertex="1" parent="1">
                    <mxGeometry x="450" y="210" width="115" height="10" as="geometry"/>
                </mxCell>
                <mxCell id="217" value="&lt;font style=&quot;font-size: 10px;&quot; color=&quot;#ffffff&quot;&gt;Create edgeTransport(s)&lt;/font&gt;" style="text;html=1;strokeColor=none;fillColor=none;align=center;verticalAlign=middle;whiteSpace=wrap;rounded=0;" vertex="1" parent="1">
                    <mxGeometry x="510" y="190" width="115" height="10" as="geometry"/>
                </mxCell>
                <mxCell id="218" value="&lt;font style=&quot;font-size: 10px;&quot; color=&quot;#ffffff&quot;&gt;Answer from algorithm&lt;/font&gt;" style="text;html=1;strokeColor=none;fillColor=none;align=center;verticalAlign=middle;whiteSpace=wrap;rounded=0;" vertex="1" parent="1">
                    <mxGeometry x="550" y="475" width="115" height="10" as="geometry"/>
                </mxCell>
                <mxCell id="219" value="&lt;font style=&quot;font-size: 10px;&quot; color=&quot;#ffffff&quot;&gt;Send information from Bob&lt;/font&gt;" style="text;html=1;strokeColor=none;fillColor=none;align=center;verticalAlign=middle;whiteSpace=wrap;rounded=0;" vertex="1" parent="1">
                    <mxGeometry x="850" y="350" width="150" height="10" as="geometry"/>
                </mxCell>
                <mxCell id="220" value="&lt;font style=&quot;font-size: 10px;&quot; color=&quot;#ffffff&quot;&gt;Graph traversal algorithm&lt;/font&gt;" style="text;html=1;strokeColor=none;fillColor=none;align=center;verticalAlign=middle;whiteSpace=wrap;rounded=0;" vertex="1" parent="1">
                    <mxGeometry x="540" y="390" width="140" height="10" as="geometry"/>
                </mxCell>
                <mxCell id="221" value="&lt;font style=&quot;font-size: 10px;&quot; color=&quot;#ffffff&quot;&gt;Display the network&lt;/font&gt;" style="text;html=1;strokeColor=none;fillColor=none;align=center;verticalAlign=middle;whiteSpace=wrap;rounded=0;" vertex="1" parent="1">
                    <mxGeometry x="760" y="310" width="115" height="10" as="geometry"/>
                </mxCell>
                <mxCell id="222" value="&lt;font style=&quot;font-size: 10px;&quot; color=&quot;#ffffff&quot;&gt;Send information network&lt;/font&gt;" style="text;html=1;strokeColor=none;fillColor=none;align=center;verticalAlign=middle;whiteSpace=wrap;rounded=0;" vertex="1" parent="1">
                    <mxGeometry x="761.25" y="280" width="137.5" height="10" as="geometry"/>
                </mxCell>
                <mxCell id="225" value="&lt;font style=&quot;font-size: 10px;&quot; color=&quot;#ffffff&quot;&gt;Send the answer for display&lt;/font&gt;" style="text;html=1;strokeColor=none;fillColor=none;align=center;verticalAlign=middle;whiteSpace=wrap;rounded=0;" vertex="1" parent="1">
                    <mxGeometry x="790" y="510" width="150" height="10" as="geometry"/>
                </mxCell>
                <mxCell id="226" value="&lt;font style=&quot;font-size: 10px;&quot; color=&quot;#ffffff&quot;&gt;Create vertex(s)&lt;/font&gt;" style="text;html=1;strokeColor=none;fillColor=none;align=center;verticalAlign=middle;whiteSpace=wrap;rounded=0;" vertex="1" parent="1">
                    <mxGeometry x="750" y="440" width="150" height="10" as="geometry"/>
                </mxCell>
                <mxCell id="227" value="&lt;font style=&quot;font-size: 10px;&quot; color=&quot;#ffffff&quot;&gt;Create edge(s)&lt;/font&gt;" style="text;html=1;strokeColor=none;fillColor=none;align=center;verticalAlign=middle;whiteSpace=wrap;rounded=0;" vertex="1" parent="1">
                    <mxGeometry x="805" y="415" width="150" height="10" as="geometry"/>
                </mxCell>
                <mxCell id="228" value="&lt;font style=&quot;font-size: 10px;&quot; color=&quot;#ffffff&quot;&gt;Create Panel&lt;/font&gt;" style="text;html=1;strokeColor=none;fillColor=none;align=center;verticalAlign=middle;whiteSpace=wrap;rounded=0;" vertex="1" parent="1">
                    <mxGeometry x="1080" y="170" width="150" height="10" as="geometry"/>
                </mxCell>
                <mxCell id="229" value="&lt;font style=&quot;font-size: 10px;&quot; color=&quot;#ffffff&quot;&gt;Create GraphPanelJung&lt;/font&gt;" style="text;html=1;strokeColor=none;fillColor=none;align=center;verticalAlign=middle;whiteSpace=wrap;rounded=0;" vertex="1" parent="1">
                    <mxGeometry x="1130" y="125" width="150" height="10" as="geometry"/>
                </mxCell>
                <mxCell id="232" value="&lt;font style=&quot;font-size: 10px;&quot; color=&quot;#ffffff&quot;&gt;Display the network with the answer from algorithm&lt;/font&gt;" style="text;html=1;strokeColor=none;fillColor=none;align=center;verticalAlign=middle;whiteSpace=wrap;rounded=0;" vertex="1" parent="1">
                    <mxGeometry x="130" y="540" width="250" height="10" as="geometry"/>
                </mxCell>
                <mxCell id="233" value="&lt;font style=&quot;font-size: 10px;&quot; color=&quot;#ffffff&quot;&gt;Send strating and ending station&lt;/font&gt;" style="text;html=1;strokeColor=none;fillColor=none;align=center;verticalAlign=middle;whiteSpace=wrap;rounded=0;" vertex="1" parent="1">
                    <mxGeometry x="195" y="340" width="150" height="10" as="geometry"/>
                </mxCell>
                <mxCell id="235" value="&lt;font style=&quot;font-size: 10px;&quot; color=&quot;#ffffff&quot;&gt;Bob&lt;/font&gt;" style="text;html=1;strokeColor=none;fillColor=none;align=center;verticalAlign=middle;whiteSpace=wrap;rounded=0;" vertex="1" parent="1">
                    <mxGeometry x="14" y="60" width="50" height="10" as="geometry"/>
                </mxCell>
                <mxCell id="236" value="&lt;font style=&quot;font-size: 10px;&quot; color=&quot;#ffffff&quot;&gt;Station&lt;/font&gt;" style="text;html=1;strokeColor=none;fillColor=none;align=center;verticalAlign=middle;whiteSpace=wrap;rounded=0;" vertex="1" parent="1">
                    <mxGeometry x="502.5" y="35" width="115" height="10" as="geometry"/>
                </mxCell>
                <mxCell id="237" value="&lt;font style=&quot;font-size: 10px;&quot; color=&quot;#ffffff&quot;&gt;Network&lt;/font&gt;" style="text;html=1;strokeColor=none;fillColor=none;align=center;verticalAlign=middle;whiteSpace=wrap;rounded=0;" vertex="1" parent="1">
                    <mxGeometry x="392.5" y="35" width="115" height="10" as="geometry"/>
                </mxCell>
                <mxCell id="238" value="&lt;font style=&quot;font-size: 10px;&quot; color=&quot;#ffffff&quot;&gt;Parser&lt;/font&gt;" style="text;html=1;strokeColor=none;fillColor=none;align=center;verticalAlign=middle;whiteSpace=wrap;rounded=0;" vertex="1" parent="1">
                    <mxGeometry x="282.5" y="35" width="115" height="10" as="geometry"/>
                </mxCell>
                <mxCell id="239" value="&lt;font style=&quot;font-size: 10px;&quot; color=&quot;#ffffff&quot;&gt;Controller&lt;/font&gt;" style="text;html=1;strokeColor=none;fillColor=none;align=center;verticalAlign=middle;whiteSpace=wrap;rounded=0;" vertex="1" parent="1">
                    <mxGeometry x="132.5" y="35" width="115" height="10" as="geometry"/>
                </mxCell>
                <mxCell id="241" value="&lt;font style=&quot;font-size: 10px;&quot; color=&quot;#ffffff&quot;&gt;Vertex&lt;/font&gt;" style="text;html=1;strokeColor=none;fillColor=none;align=center;verticalAlign=middle;whiteSpace=wrap;rounded=0;" vertex="1" parent="1">
                    <mxGeometry x="822.5" y="35" width="115" height="10" as="geometry"/>
                </mxCell>
                <mxCell id="242" value="&lt;font style=&quot;font-size: 10px;&quot; color=&quot;#ffffff&quot;&gt;Graph&lt;/font&gt;" style="text;html=1;strokeColor=none;fillColor=none;align=center;verticalAlign=middle;whiteSpace=wrap;rounded=0;" vertex="1" parent="1">
                    <mxGeometry x="712.5" y="35" width="115" height="10" as="geometry"/>
                </mxCell>
                <mxCell id="243" value="&lt;font style=&quot;font-size: 9px;&quot; color=&quot;#ffffff&quot;&gt;EdgeTransport&lt;/font&gt;" style="text;html=1;strokeColor=none;fillColor=none;align=center;verticalAlign=middle;whiteSpace=wrap;rounded=0;" vertex="1" parent="1">
                    <mxGeometry x="602.5" y="35" width="115" height="10" as="geometry"/>
                </mxCell>
                <mxCell id="245" value="&lt;font style=&quot;font-size: 8px;&quot; color=&quot;#ffffff&quot;&gt;GraphPanelJung&lt;/font&gt;" style="text;html=1;strokeColor=none;fillColor=none;align=center;verticalAlign=middle;whiteSpace=wrap;rounded=0;" vertex="1" parent="1">
                    <mxGeometry x="1285" y="35" width="70" height="10" as="geometry"/>
                </mxCell>
                <mxCell id="246" value="&lt;font style=&quot;font-size: 10px;&quot; color=&quot;#ffffff&quot;&gt;Panel&lt;/font&gt;" style="text;html=1;strokeColor=none;fillColor=none;align=center;verticalAlign=middle;whiteSpace=wrap;rounded=0;" vertex="1" parent="1">
                    <mxGeometry x="1152.5" y="35" width="115" height="10" as="geometry"/>
                </mxCell>
                <mxCell id="247" value="&lt;font color=&quot;#ffffff&quot;&gt;&lt;span style=&quot;font-size: 10px;&quot;&gt;View&lt;/span&gt;&lt;/font&gt;" style="text;html=1;strokeColor=none;fillColor=none;align=center;verticalAlign=middle;whiteSpace=wrap;rounded=0;" vertex="1" parent="1">
                    <mxGeometry x="1042.5" y="35" width="115" height="10" as="geometry"/>
                </mxCell>
                <mxCell id="248" value="&lt;font style=&quot;font-size: 10px;&quot; color=&quot;#ffffff&quot;&gt;Edge&lt;/font&gt;" style="text;html=1;strokeColor=none;fillColor=none;align=center;verticalAlign=middle;whiteSpace=wrap;rounded=0;" vertex="1" parent="1">
                    <mxGeometry x="932.5" y="35" width="115" height="10" as="geometry"/>
                </mxCell>
            </root>
        </mxGraphModel>
    </diagram>
</mxfile>